<svg width="513" height="347" viewBox="0 0 513 347" fill="none" xmlns="http://www.w3.org/2000/svg">
    <rect y="21.0186" width="512.678" height="282.708" rx="10" fill="url(#paint0_linear_2251_1182)"/>
    <rect y="179.231" width="512.678" height="24.2074" fill="#6A7671"/>
    <path d="M0 195.658H512.678V299.779C512.678 305.302 508.2 309.779 502.678 309.779H10C4.47715 309.779 0 305.302 0 299.779V195.658Z" fill="#DEECE7"/>
    <g filter="url(#filter0_f_2251_1182)">
        <circle cx="212.295" cy="55.094" r="42.8431" fill="#FF9900" fill-opacity="0.5"/>
    </g>
    <circle cx="212.702" cy="55.0956" r="35.5195" fill="#F2F2F2"/>
    <circle cx="212.702" cy="58.0252" r="14.281" fill="#FF9900" fill-opacity="0.5"/>
    <path d="M149.719 114.417C149.353 110.755 149.963 109.534 149.719 108.924L136.536 110.022L122.988 111.853L117.129 115.881L119.326 128.698L121.889 132.359C124.453 134.556 130.385 135.362 130.678 137.12C130.971 138.877 130.433 145.176 129.945 147.373C128.188 147.373 125.795 148.593 124.819 149.204C126.161 151.401 129.506 156.088 132.142 157.26C135.438 158.724 143.128 154.33 143.128 150.668C143.128 147.007 141.297 145.908 141.297 143.345C141.297 141.294 140.686 137.974 140.564 136.387C141.419 136.265 146.204 135.216 148.254 133.458C150.817 131.261 151.182 127.95 150.817 123.571C150.451 119.177 150.09 118.132 149.719 114.417Z" fill="#FBFDFC"/>
    <path d="M114.505 190.401C111.719 177.907 121.224 166.048 134.025 166.048H357.294C370.095 166.048 379.6 177.907 376.814 190.401L364.177 247.072C362.138 256.216 354.025 262.719 344.657 262.719H146.662C137.294 262.719 129.181 256.216 127.142 247.072L114.505 190.401Z" fill="#FFEACA"/>
    <path d="M129.372 178.682C125.466 165.835 135.079 152.865 148.507 152.865H342.81C356.238 152.865 365.851 165.835 361.945 178.682L354.513 203.13C351.952 211.554 344.183 217.313 335.378 217.313H155.939C147.134 217.313 139.365 211.554 136.804 203.13L129.372 178.682Z" fill="#FF9900"/>
    <path d="M194.394 3.17172C137.416 11.96 93.6941 57.2931 87.1028 114.417C86.6634 118.372 86.3705 143.492 86.3705 176.814V232.693H78.5342C72.0162 232.693 70.1853 232.913 68.2812 234.158C65.6447 235.696 64.0335 237.966 63.3011 240.896C62.8617 242.727 62.9349 242.873 66.377 243.459C70.8444 244.191 105.632 244.265 109.22 243.459C111.783 242.946 111.857 242.8 111.271 240.603C109.44 234.451 106.291 232.693 96.6968 232.693H90.1055L90.3252 173.519C90.4717 108.558 90.3985 110.17 95.232 93.6182C108.634 47.626 148.987 13.0586 196.81 6.76028C201.351 6.17439 206.404 5.66174 208.016 5.66174H210.872V16.2077V26.6805L207.942 27.1199C203.988 27.6326 196.517 31.2943 192.929 34.4435C186.484 40.0827 182.529 50.2625 183.262 59.124C183.921 67.2532 180.698 66.4476 213.142 66.4476H241.631L242.436 64.397C242.876 63.2985 243.096 59.3438 242.949 55.4622C242.729 49.8963 242.29 47.6992 240.752 44.2571C236.797 35.7617 227.203 28.2917 218.854 27.1931L215.266 26.6805V14.3768V1.99995L208.162 2.07318C204.207 2.14642 198.055 2.58583 194.394 3.17172Z" fill="#022013"/>
    <path d="M292.969 76.6278C291.138 77.7996 292.53 79.2643 295.24 79.0446C298.755 78.7517 299.194 79.7037 296.558 82.4867C293.994 85.1232 293.702 86.9541 295.825 86.9541C296.631 86.9541 297.29 86.5879 297.29 86.1485C297.29 85.7091 298.315 84.3908 299.487 83.2923C302.05 80.8755 302.27 79.484 300.22 77.4334C298.682 75.8955 294.8 75.456 292.969 76.6278Z" fill="#022013"/>
    <path d="M138.954 87.4661C137.855 87.759 138.075 88.1984 140.199 90.1758C144.886 94.6432 143.86 95.7417 132.875 97.8656C122.329 99.9162 116.543 102.699 114.273 106.727C111.783 111.268 111.417 117.346 113.394 122.839L115.005 127.233L106.51 137.486C98.6005 147.227 98.0879 147.959 98.0879 151.035C98.0879 156.235 100.138 157.846 114.2 163.485C120.864 166.195 127.456 168.905 128.92 169.49C131.264 170.442 132.362 172.127 140.638 187.36C146.424 197.979 150.232 204.278 151.111 204.57C158.434 206.987 169.273 201.202 178.94 189.85L182.968 185.09L175.498 177.546C171.324 173.445 165.611 166.854 162.682 162.972L157.409 155.869L159.46 152.353C160.631 150.449 165.099 143.418 169.42 136.827C176.304 126.208 177.183 124.523 176.743 122.546C176.084 119.397 174.62 117.346 172.203 116.248C170.225 115.296 149.646 113.465 148.987 114.197C148.767 114.417 148.84 116.687 149.133 119.177L149.719 123.791L154.406 125.036C159.826 126.574 161.803 128.112 160.631 130.016C159.679 131.554 149.353 138.658 144.153 141.295L140.272 143.272L140.492 146.934C140.638 150.156 140.418 150.888 138.661 152.5C137.196 153.891 135.878 154.331 133.534 154.331C130.824 154.331 130.092 153.964 128.041 151.474C125.844 148.838 125.478 148.691 123.061 149.277C121.597 149.643 119.18 149.936 117.715 149.936C115.079 149.936 114.932 149.79 114.932 147.666C114.932 146.201 116.177 143.272 118.228 139.903C120.059 136.9 121.377 134.191 121.157 133.824C120.938 133.458 121.304 131.92 121.89 130.309C123.061 127.526 122.988 127.306 121.23 124.67C118.74 121.081 118.74 117.932 121.157 116.834C123.574 115.735 126.43 117.639 127.968 121.448C128.554 122.986 129.36 124.084 129.653 123.864C130.824 123.205 130.312 119.104 128.92 117.053L127.529 115.076L134.34 115.369C145.325 115.882 151.257 113.025 154.992 105.409C156.457 102.406 156.97 100.136 157.043 96.9868C157.043 93.1052 156.823 92.5194 154.773 90.6152C151.55 87.8323 143.714 86.2211 138.954 87.4661Z" fill="#022013"/>
    <path d="M294.873 88.8579C294.58 89.1508 294.36 90.0297 294.36 90.762C294.36 91.7873 294.8 92.1535 296.045 91.9338C297.07 91.7873 297.656 91.2014 297.656 90.2494C297.656 88.7847 295.825 87.9058 294.873 88.8579Z" fill="black"/>
    <path d="M307.542 93.1779L303.587 97.2059H296.264H288.94L285.058 93.3977L281.177 89.5894L281.104 93.5441C280.957 98.3045 281.25 117.273 281.47 117.492C281.543 117.566 284.18 117.053 287.256 116.321C290.331 115.588 292.895 115.222 292.895 115.515C292.895 115.808 290.185 116.613 286.816 117.346C280.811 118.591 280.738 118.664 281.03 120.715L281.323 122.765L287.182 119.836C290.405 118.225 293.188 117.053 293.407 117.273C293.627 117.492 290.551 119.25 286.596 121.301C282.568 123.278 279.712 124.962 280.225 124.962C280.811 125.036 281.177 127.745 281.397 133.97C281.543 138.95 281.909 143.711 282.202 144.59C282.788 146.201 282.642 146.274 278.76 146.274C275.245 146.274 274.512 146.567 273.194 148.178C272.315 149.277 271.656 150.888 271.656 151.84V153.598H297.875C323.8 153.598 324.02 153.598 327.682 151.84C331.929 149.863 334.127 147.666 335.665 143.931C336.69 141.66 337.276 141.221 340.571 140.415C345.405 139.243 349.067 135.655 352.729 128.404C354.633 124.669 356.464 122.253 358.734 120.568C361.077 118.737 362.396 116.906 363.641 113.757C364.593 111.414 365.765 108.997 366.277 108.411C367.083 107.386 382.389 99.403 383.414 99.403C383.707 99.403 383.707 100.502 383.488 101.893C382.975 104.969 384.586 106.946 386.197 105.189C387.589 103.797 388.98 95.0088 388.102 93.9103C387.735 93.3977 385.026 92.6653 382.169 92.0794C377.775 91.347 376.823 91.347 376.311 92.1526C375.358 93.6906 375.871 94.4962 378.508 95.375L380.851 96.1074L372.722 100.355C364.153 104.896 362.176 106.8 360.052 112.659C359.173 115.002 357.855 116.613 355.585 118.225C353.168 119.982 351.776 121.813 349.799 125.914C346.723 132.286 342.329 136.753 339.18 136.753C337.422 136.753 337.056 136.387 336.25 133.531C334.566 127.233 329.439 123.278 321.457 122.253C318.454 121.813 316.477 121.081 315.305 119.982C313.987 118.737 311.643 118.005 306.517 117.126C302.635 116.467 299.486 115.735 299.486 115.442C299.486 115.222 302.342 115.515 305.784 116.101C309.226 116.687 312.083 116.98 312.156 116.906C312.229 116.76 312.156 110.388 311.936 102.845L311.57 89.0767L307.542 93.1779ZM293.627 107.166C294.433 109.29 293.92 110.901 292.016 111.926C289.16 113.464 285.718 110.535 286.67 107.386C287.695 104.31 292.529 104.163 293.627 107.166ZM306.15 106.873C307.688 109.729 304.759 113.171 301.61 112.219C298.68 111.267 298.387 106.36 301.244 105.335C303.294 104.53 305.272 105.189 306.15 106.873ZM298.754 113.245C298.754 113.611 298.241 114.27 297.655 114.783C296.776 115.515 296.337 115.515 295.458 114.783C293.774 113.391 294.14 112.585 296.556 112.585C297.802 112.585 298.754 112.878 298.754 113.245ZM310.471 121.008C315.891 123.131 319.919 124.962 319.479 124.962C318.381 125.036 299.486 117.785 299.486 117.273C299.486 116.687 300.804 117.126 310.471 121.008ZM323.288 132.286C318.308 133.531 315.305 135.875 313.108 140.195C310.984 144.37 311.35 144.809 316.916 144.956C319.919 145.029 318.234 145.249 312.595 145.468C302.342 145.981 300.804 146.567 299.559 150.961C298.9 153.085 298.9 153.158 298.827 151.327C298.68 147.739 302.928 144.809 308.201 144.809C310.764 144.809 311.057 144.59 311.497 142.466C312.595 136.973 318.82 131.48 323.654 131.7C325.338 131.773 325.265 131.847 323.288 132.286Z" fill="#022013"/>
    <path d="M289.528 106.947C289.308 107.606 289.308 108.778 289.601 109.437C290.04 110.608 290.187 110.608 290.919 109.071C291.432 107.899 291.432 107.166 290.846 106.58C290.26 105.995 289.894 106.068 289.528 106.947Z" fill="black"/>
    <path d="M302.05 106.727C301.391 107.752 302.343 110.535 303.221 110.023C304.1 109.437 304.1 106.947 303.221 106.361C302.855 106.141 302.343 106.287 302.05 106.727Z" fill="black"/>
    <path d="M278.102 118.956C278.614 119.176 279.273 119.103 279.493 118.883C279.786 118.663 279.347 118.444 278.541 118.517C277.735 118.517 277.516 118.737 278.102 118.956Z" fill="black"/>
    <path d="M133.901 127.013C135.146 129.43 137.636 130.895 140.565 130.822C143.055 130.748 142.982 130.675 139.906 130.162C137.636 129.796 136.171 129.064 134.853 127.526C133.681 126.061 133.388 125.915 133.901 127.013Z" fill="#FF9900"/>
    <rect width="218.962" height="28.562" rx="8" transform="matrix(1 0 -0.707107 0.707107 133.973 265.648)" fill="#6A7671" fill-opacity="0.5"/>
    <path d="M143.129 269.604C141.664 277.88 141.81 278.978 144.447 279.857C147.523 280.956 148.475 279.345 150.013 270.556L151.331 262.72H147.889H144.374L143.129 269.604Z" fill="#000905"/>
    <path d="M162.828 265.429C162.169 268.798 163.194 270.409 165.904 270.409C168.248 270.409 169.859 268.139 169.859 264.697C169.859 262.866 169.639 262.719 166.563 262.719C163.414 262.719 163.341 262.793 162.828 265.429Z" fill="#000905"/>
    <path d="M165.832 217.313C157.043 215.263 151.917 207.671 150.452 204.131C151.185 204.863 154.418 206.495 161.438 203.765C168.029 201.201 178.892 190.583 183.042 185.09C190.122 181.306 202.45 170.882 208.309 171.175C214.167 171.468 245.049 196.441 259.574 207.426C266.165 206.694 270.559 214.872 270.193 217.313H244.56H237.603L209.773 193.512L184.873 217.313H165.832Z" fill="white"/>
    <rect x="136.903" y="217.312" width="216.046" height="25.6326" rx="12.8163" fill="#000905"/>
    <path d="M237.603 217.313L209.773 193.512L248.589 217.313H237.603Z" fill="#ECEBEB"/>
    <path d="M259.573 207.427L248.588 217.314H270.193C270.193 215.483 269.826 214.385 268.362 212.188C266.897 209.991 264.31 208.224 263.235 207.794C261.971 207.288 260.672 207.061 259.573 207.427Z" fill="#022013"/>
    <path fill-rule="evenodd" clip-rule="evenodd" d="M260.561 303.531L259.959 305.071C257.751 310.73 260.814 316.152 266.801 317.181L435.931 346.243C441.918 347.272 448.562 343.518 450.771 337.858L484.701 250.922C485.877 247.909 485.559 244.964 484.101 242.713L450.772 328.109C448.563 333.768 441.919 337.522 435.932 336.493L292.905 311.917C292.636 312.004 292.351 312.047 292.05 312.047L292.025 312.11C292.628 312.296 293.028 312.586 293.226 312.982C293.428 313.375 293.429 313.824 293.229 314.329C293.051 314.793 292.749 315.18 292.323 315.491C291.9 315.802 291.399 316.018 290.82 316.139C290.241 316.26 289.63 316.265 288.986 316.154C288.358 316.047 287.84 315.849 287.429 315.561C287.023 315.271 286.748 314.921 286.606 314.513C286.467 314.102 286.486 313.659 286.663 313.184L288.494 313.499C288.428 313.699 288.428 313.886 288.495 314.058C288.566 314.228 288.692 314.373 288.873 314.491C289.054 314.61 289.277 314.692 289.543 314.738C289.82 314.786 290.083 314.781 290.332 314.725C290.581 314.669 290.798 314.569 290.982 314.426C291.167 314.283 291.301 314.104 291.384 313.889C291.469 313.672 291.479 313.47 291.416 313.281C291.356 313.09 291.225 312.926 291.025 312.79C290.827 312.654 290.565 312.558 290.241 312.503L289.438 312.365L289.82 311.387L266.802 307.432C264.002 306.95 261.841 305.508 260.561 303.531Z" fill="#6A7671"/>
    <rect width="189.067" height="112.618" rx="11" transform="matrix(0.985556 0.16935 -0.363576 0.931564 299.634 200.391)" fill="white"/>
    <rect width="207.974" height="36.1694" rx="11" transform="matrix(0.985556 0.16935 -0.363576 0.931564 272.727 200.669)" fill="#DEECE7"/>
    <rect width="148.788" height="25.483" rx="11" transform="matrix(0.985556 0.16935 -0.363576 0.931564 302.641 245.848)" fill="#DEECE7"/>
    <rect width="148.788" height="25.483" rx="11" transform="matrix(0.985556 0.16935 -0.363576 0.931564 292.18 272.65)" fill="#DEECE7"/>
    <rect width="23.8389" height="24.661" rx="11.9195" transform="matrix(0.985556 0.16935 -0.363576 0.931564 300.61 211.18)" fill="#FF9900"/>
    <rect width="17.2627" height="17.2627" rx="8.63134" transform="matrix(0.985556 0.16935 -0.363576 0.931564 324.211 253.296)" fill="#FF9900"/>
    <rect width="17.2627" height="17.2627" rx="8.63134" transform="matrix(0.985556 0.16935 -0.363576 0.931564 313.75 280.1)" fill="#FF9900"/>
    <rect width="46.0338" height="16.4406" rx="8.22032" transform="matrix(0.985556 0.16935 -0.363576 0.931564 418.209 235.474)" fill="#14F195"/>
    <rect width="31.2372" height="10.6864" rx="5.34321" transform="matrix(0.985556 0.16935 -0.363576 0.931564 407.701 271.256)" fill="#14F195"/>
    <rect width="31.2372" height="10.6864" rx="5.34321" transform="matrix(0.985556 0.16935 -0.363576 0.931564 397.241 298.058)" fill="#14F195"/>
    <path d="M278.472 223.389L283.057 215.501L284.401 215.732L279.816 223.62L278.472 223.389ZM275.408 220.71L276.127 219.478L282.846 220.633L282.128 221.865L275.408 220.71ZM275.449 222.869L280.033 214.982L281.377 215.213L276.792 223.1L275.449 222.869ZM277.003 217.968L277.725 216.737L284.445 217.892L283.722 219.123L277.003 217.968ZM289.555 216.618L286.382 224.748L284.564 224.436L287.1 217.937L287.05 217.928L284.625 218.757L285.22 217.233L287.846 216.324L289.555 216.618Z" fill="black"/>
    <path d="M426.879 247.927C426.359 247.838 425.954 247.649 425.665 247.362C425.38 247.073 425.214 246.714 425.167 246.285C425.121 245.855 425.197 245.386 425.396 244.877C425.597 244.361 425.877 243.923 426.237 243.563C426.597 243.202 427.007 242.941 427.468 242.783C427.928 242.624 428.411 242.588 428.917 242.675C429.326 242.746 429.662 242.88 429.926 243.078C430.19 243.274 430.37 243.517 430.467 243.806C430.565 244.096 430.566 244.415 430.47 244.764L429.452 244.589C429.489 244.341 429.44 244.114 429.307 243.907C429.176 243.701 428.943 243.569 428.61 243.512C428.318 243.462 428.034 243.491 427.758 243.599C427.485 243.705 427.236 243.881 427.01 244.127C426.786 244.371 426.603 244.673 426.462 245.035C426.317 245.406 426.252 245.736 426.266 246.025C426.28 246.315 426.366 246.552 426.526 246.737C426.687 246.922 426.916 247.041 427.213 247.091C427.411 247.126 427.604 247.122 427.792 247.082C427.983 247.039 428.158 246.962 428.319 246.851C428.481 246.74 428.621 246.597 428.736 246.421L429.755 246.596C429.589 246.919 429.362 247.192 429.072 247.418C428.782 247.644 428.45 247.803 428.075 247.896C427.702 247.99 427.304 248 426.879 247.927ZM432.274 248.854C431.77 248.768 431.373 248.583 431.082 248.3C430.792 248.017 430.619 247.662 430.565 247.233C430.51 246.805 430.586 246.328 430.79 245.804C430.996 245.276 431.28 244.833 431.642 244.474C432.003 244.115 432.415 243.859 432.875 243.705C433.336 243.551 433.819 243.518 434.323 243.604C434.827 243.691 435.224 243.876 435.514 244.158C435.805 244.441 435.977 244.798 436.03 245.228C436.084 245.659 436.008 246.138 435.802 246.665C435.597 247.19 435.314 247.631 434.954 247.987C434.593 248.344 434.182 248.6 433.721 248.753C433.26 248.907 432.778 248.941 432.274 248.854ZM432.601 248.024C432.928 248.081 433.23 248.045 433.509 247.919C433.787 247.793 434.031 247.603 434.239 247.349C434.45 247.096 434.619 246.806 434.747 246.48C434.873 246.156 434.937 245.849 434.938 245.56C434.942 245.268 434.869 245.022 434.719 244.819C434.569 244.617 434.33 244.488 434.003 244.432C433.674 244.375 433.369 244.411 433.088 244.539C432.808 244.668 432.563 244.86 432.351 245.115C432.143 245.369 431.975 245.658 431.849 245.982C431.721 246.308 431.656 246.616 431.653 246.905C431.652 247.194 431.727 247.439 431.878 247.639C432.031 247.839 432.272 247.968 432.601 248.024ZM435.047 251.255L437.774 244.268L438.796 244.443L438.474 245.267L438.562 245.282C438.664 245.187 438.799 245.079 438.968 244.96C439.136 244.841 439.342 244.747 439.586 244.678C439.83 244.607 440.119 244.6 440.452 244.657C440.886 244.732 441.233 244.902 441.493 245.168C441.753 245.434 441.903 245.779 441.945 246.202C441.988 246.626 441.903 247.113 441.689 247.662C441.474 248.211 441.194 248.665 440.847 249.025C440.501 249.382 440.117 249.637 439.696 249.791C439.276 249.942 438.849 249.981 438.415 249.906C438.089 249.85 437.842 249.752 437.674 249.613C437.51 249.474 437.396 249.325 437.334 249.166C437.271 249.007 437.229 248.868 437.209 248.749L437.146 248.738L436.093 251.434L435.047 251.255ZM437.808 246.985C437.668 247.342 437.601 247.665 437.605 247.952C437.61 248.24 437.687 248.478 437.835 248.666C437.984 248.852 438.209 248.97 438.51 249.022C438.823 249.076 439.115 249.042 439.386 248.922C439.658 248.799 439.9 248.611 440.113 248.359C440.329 248.106 440.503 247.81 440.636 247.471C440.766 247.135 440.83 246.825 440.827 246.54C440.826 246.255 440.75 246.017 440.598 245.826C440.448 245.636 440.216 245.513 439.901 245.459C439.597 245.407 439.312 245.437 439.044 245.549C438.779 245.661 438.541 245.84 438.33 246.086C438.12 246.332 437.945 246.632 437.808 246.985ZM441.411 252.348C441.255 252.321 441.117 252.285 440.998 252.238C440.879 252.194 440.792 252.154 440.74 252.116L441.308 251.349C441.481 251.43 441.643 251.481 441.795 251.5C441.946 251.519 442.099 251.488 442.252 251.409C442.407 251.33 442.573 251.185 442.75 250.976L443.011 250.66L443.053 245.175L444.173 245.367L443.995 249.545L444.051 249.554L446.952 245.845L448.075 246.038L443.612 251.417C443.406 251.664 443.188 251.865 442.958 252.021C442.727 252.179 442.484 252.285 442.228 252.34C441.973 252.395 441.7 252.398 441.411 252.348Z" fill="black"/>
    <path d="M305.795 262.861L310.379 254.974L311.723 255.205L307.139 263.092L305.795 262.861ZM302.731 260.183L303.449 258.951L310.169 260.106L309.45 261.338L302.731 260.183ZM302.771 262.342L307.355 254.454L308.699 254.685L304.115 262.573L302.771 262.342ZM304.325 257.441L305.048 256.21L311.767 257.364L311.045 258.596L304.325 257.441ZM309.963 263.578L310.446 262.339L314.554 260.186C314.907 259.992 315.209 259.815 315.46 259.655C315.713 259.495 315.922 259.332 316.086 259.165C316.25 258.996 316.374 258.804 316.458 258.59C316.551 258.352 316.574 258.137 316.526 257.945C316.479 257.75 316.375 257.59 316.212 257.463C316.051 257.334 315.844 257.247 315.592 257.204C315.329 257.159 315.079 257.17 314.844 257.236C314.609 257.303 314.401 257.422 314.222 257.591C314.042 257.761 313.901 257.975 313.8 258.235L312.074 257.938C312.282 257.406 312.589 256.966 312.997 256.618C313.405 256.27 313.88 256.029 314.423 255.893C314.966 255.758 315.537 255.742 316.136 255.845C316.752 255.95 317.248 256.146 317.623 256.431C318.003 256.713 318.25 257.058 318.363 257.464C318.476 257.87 318.441 258.308 318.259 258.776C318.139 259.083 317.956 259.375 317.711 259.652C317.468 259.93 317.113 260.223 316.646 260.532C316.179 260.839 315.552 261.196 314.762 261.602L313.053 262.55L313.031 262.605L316.643 263.226L316.094 264.631L309.963 263.578Z" fill="black"/>
    <path d="M294.496 288.861L299.08 280.974L300.424 281.205L295.84 289.092L294.496 288.861ZM291.432 286.183L292.15 284.951L298.87 286.106L298.151 287.338L291.432 286.183ZM291.472 288.342L296.056 280.454L297.4 280.685L292.816 288.573L291.472 288.342ZM293.026 283.441L293.749 282.21L300.468 283.364L299.746 284.596L293.026 283.441ZM301.8 290.235C301.173 290.127 300.654 289.929 300.243 289.641C299.837 289.351 299.562 289.002 299.42 288.594C299.281 288.183 299.3 287.74 299.477 287.265L301.308 287.579C301.242 287.78 301.242 287.966 301.309 288.139C301.38 288.309 301.506 288.454 301.687 288.572C301.868 288.691 302.091 288.773 302.357 288.819C302.634 288.866 302.897 288.862 303.146 288.806C303.395 288.75 303.612 288.65 303.796 288.507C303.981 288.363 304.115 288.185 304.198 287.97C304.283 287.753 304.294 287.55 304.23 287.361C304.17 287.17 304.04 287.007 303.839 286.871C303.641 286.735 303.379 286.639 303.055 286.583L302.253 286.445L302.745 285.183L303.547 285.321C303.822 285.368 304.082 285.365 304.327 285.311C304.575 285.257 304.788 285.161 304.968 285.023C305.148 284.882 305.281 284.704 305.364 284.489C305.444 284.286 305.462 284.098 305.418 283.927C305.378 283.753 305.283 283.607 305.132 283.488C304.984 283.369 304.789 283.289 304.545 283.247C304.299 283.205 304.057 283.209 303.819 283.258C303.583 283.305 303.373 283.395 303.19 283.527C303.007 283.659 302.871 283.828 302.782 284.033L301.039 283.733C301.23 283.267 301.533 282.878 301.946 282.568C302.36 282.258 302.839 282.042 303.382 281.921C303.929 281.797 304.497 281.786 305.085 281.887C305.678 281.989 306.158 282.18 306.524 282.461C306.889 282.741 307.128 283.075 307.239 283.464C307.354 283.851 307.326 284.259 307.156 284.687C306.981 285.143 306.683 285.497 306.262 285.749C305.843 286.002 305.377 286.128 304.864 286.127L304.839 286.191C305.442 286.376 305.842 286.667 306.041 287.062C306.243 287.456 306.244 287.905 306.043 288.41C305.865 288.874 305.563 289.261 305.137 289.572C304.714 289.883 304.213 290.099 303.634 290.22C303.055 290.341 302.444 290.346 301.8 290.235Z" fill="black"/>
    <path d="M361.142 231.702L342.047 237.91L378.504 244.175L384.482 228.859L366.954 236.391L361.142 231.702Z" fill="#81D8B3"/>
    <path d="M365.334 268.43L351.967 272.301L377.892 276.756L381.778 266.8L369.549 271.553L365.334 268.43Z" fill="#81D8B3"/>
    <path d="M355.046 294.788L341.505 299.104L367.43 303.558L371.615 292.838L359.193 298.084L355.046 294.788Z" fill="#81D8B3"/>
    <defs>
        <filter id="filter0_f_2251_1182" x="157.452" y="0.250977" width="109.687" height="109.687" filterUnits="userSpaceOnUse" color-interpolation-filters="sRGB">
            <feFlood flood-opacity="0" result="BackgroundImageFix"/>
            <feBlend mode="normal" in="SourceGraphic" in2="BackgroundImageFix" result="shape"/>
            <feGaussianBlur stdDeviation="6" result="effect1_foregroundBlur_2251_1182"/>
        </filter>
        <linearGradient id="paint0_linear_2251_1182" x1="0" y1="21.0186" x2="361.292" y2="208.977" gradientUnits="userSpaceOnUse">
            <stop stop-color="#14F195"/>
            <stop offset="1" stop-color="#FFEA2B"/>
        </linearGradient>
    </defs>
</svg>