<svg width="242" height="56" viewBox="0 0 242 56" fill="none" xmlns="http://www.w3.org/2000/svg">
    <path d="M66.7416 33.624V26.352H64.5816V24.048H66.7896V20.16H69.4536V24.048H73.1256V26.352H69.4536V32.76L70.3896 33.696H73.1256V36H69.1176L66.7416 33.624ZM75.4116 18.864H78.1236V26.112L80.1876 24.048H83.9556L86.4756 26.568V36H83.7636V27.312L82.8276 26.376H80.6196L78.1236 28.896V36H75.4116V18.864ZM89.2341 33.624V26.448L91.6101 24.048H98.1141L100.538 26.448V30.912H91.9461V32.832L92.8581 33.744H96.9621L97.8261 32.856V32.136H100.514V33.672L98.1861 36H91.5861L89.2341 33.624ZM97.8261 28.92V27.264L96.8901 26.304H92.8821L91.9461 27.264V28.92H97.8261ZM103.062 33.624V26.424L105.414 24.048H111.726L114.102 26.448V28.416H111.39V27.312L110.43 26.376H106.734L105.774 27.312V32.736L106.734 33.672H110.43L111.39 32.736V31.632H114.102V33.6L111.726 36H105.414L103.062 33.624ZM116.498 24.048H119.018V26.088L121.01 24.048H124.322V26.376H121.61L119.21 28.824V36H116.498V24.048ZM137.05 24.048V38.832L134.578 41.28H128.482L126.37 39.192V37.608H129.082V38.4L129.658 39H133.402L134.338 38.04V33.96L132.322 36H128.458L126.01 33.528V24.048H128.722V32.736L129.658 33.672H131.842L134.338 31.08V24.048H137.05ZM140.169 24.048H142.689V25.92L144.585 24.048H149.169L151.569 26.448V33.6L149.169 36H144.561L142.881 34.584V41.088H140.169V24.048ZM147.897 33.672L148.857 32.736V27.312L147.897 26.376H145.017L142.881 28.512V31.848L144.897 33.672H147.897ZM155.171 33.624V26.352H153.011V24.048H155.219V20.16H157.883V24.048H161.555V26.352H157.883V32.76L158.819 33.696H161.555V36H157.547L155.171 33.624ZM163.25 33.6V26.448L165.626 24.048H172.25L174.65 26.448V33.6L172.25 36H165.626L163.25 33.6ZM170.978 33.72L171.938 32.76V27.288L170.978 26.328H166.922L165.962 27.288V32.76L166.922 33.72H170.978ZM177.529 33.528V18.864H180.241V25.92L182.185 24.048H186.481L188.881 26.448V33.6L186.481 36H179.977L177.529 33.528ZM185.161 33.672L186.169 32.664V27.384L185.161 26.376H182.617L180.241 28.752V32.664L181.249 33.672H185.161ZM191.515 33.6V26.448L193.891 24.048H200.515L202.915 26.448V33.6L200.515 36H193.891L191.515 33.6ZM199.243 33.72L200.203 32.76V27.288L199.243 26.328H195.187L194.227 27.288V32.76L195.187 33.72H199.243ZM212.838 36L209.934 31.992L207.054 36H204.006L208.446 29.928L204.126 24.048H207.174L209.934 27.888L212.718 24.048H215.766L211.47 29.976L215.886 36H212.838ZM217.173 35.088V33.696L218.085 32.784H219.621L220.509 33.72V35.064L219.621 36H218.085L217.173 35.088ZM222.995 21.48V20.088L223.979 19.128H225.443L226.427 20.088V21.48L225.443 22.44H223.979L222.995 21.48ZM223.355 24.048H226.067V36H223.355V24.048ZM229.179 33.6V26.448L231.555 24.048H238.179L240.579 26.448V33.6L238.179 36H231.555L229.179 33.6ZM236.907 33.72L237.867 32.76V27.288L236.907 26.328H232.851L231.891 27.288V32.76L232.851 33.72H236.907Z" fill="#000905"/>
    <rect width="56" height="56" rx="28" fill="white"/>
    <path d="M40.8459 16.0726C38.4182 13.3686 35.2251 11.4675 31.6909 10.6221C28.1567 9.77662 24.4489 10.0268 21.0603 11.3395C17.6718 12.6521 14.763 14.965 12.7206 17.9706C10.6783 20.9763 9.59908 24.5324 9.62649 28.1662C9.6539 31.8 10.7866 35.3394 12.8741 38.3139C14.9616 41.2884 17.9049 43.5571 21.3129 44.8185C24.7208 46.0799 28.432 46.2741 31.953 45.3755C35.474 44.4768 38.6382 42.5278 41.0248 39.7875L35.4215 34.9074C34.0256 36.5102 32.1749 37.6502 30.1155 38.1758C28.056 38.7014 25.8854 38.5878 23.8921 37.85C21.8988 37.1122 20.1772 35.7853 18.9563 34.0455C17.7353 32.3057 17.0728 30.2355 17.0567 28.1101C17.0407 25.9847 17.6719 23.9048 18.8665 22.1468C20.0611 20.3888 21.7624 19.036 23.7444 18.2682C25.7263 17.5005 27.895 17.3541 29.9621 17.8486C32.0293 18.3431 33.8969 19.4551 35.3169 21.0366L40.8459 16.0726Z" fill="#14F195"/>
    <path d="M37.5449 28.9307V31.7829C37.5465 31.9262 37.6045 32.0632 37.7065 32.164C37.8084 32.2648 37.946 32.3214 38.0893 32.3214H41.4149V28.9307H37.5449Z" fill="#022013"/>
    <path d="M42.3848 32.3214H45.7104C45.8537 32.3214 45.9913 32.2648 46.0933 32.164C46.1952 32.0632 46.2532 31.9262 46.2548 31.7829V28.9307H42.3848V32.3214Z" fill="#022013"/>
    <path d="M46.6931 24.0902H45.6043C45.7158 23.8637 45.7745 23.6148 45.7759 23.3623C45.7743 22.9129 45.5947 22.4825 45.2763 22.1653C44.958 21.848 44.5269 21.6699 44.0776 21.6699C43.6081 21.6922 43.1545 21.8468 42.7692 22.1159C42.3838 22.385 42.0825 22.7576 41.8999 23.1907C41.7174 22.7576 41.416 22.385 41.0307 22.1159C40.6454 21.8468 40.1918 21.6922 39.7223 21.6699C39.2729 21.6699 38.8418 21.848 38.5235 22.1653C38.2052 22.4825 38.0256 22.9129 38.024 23.3623C38.0254 23.6148 38.0841 23.8637 38.1956 24.0902H37.1068C36.8109 24.0902 36.5742 24.4393 36.5742 24.8653V27.1909C36.5742 27.617 36.8109 27.9661 37.1068 27.9661H41.4147V24.0902H42.3852V27.9661H46.6931C46.9889 27.9661 47.2256 27.617 47.2256 27.1909V24.8653C47.2256 24.4393 46.9889 24.0902 46.6931 24.0902ZM39.7223 24.0902C39.6216 24.0993 39.5201 24.0873 39.4243 24.055C39.3285 24.0227 39.2404 23.9708 39.1658 23.9026C39.0912 23.8344 39.0315 23.7514 38.9908 23.6589C38.95 23.5664 38.9289 23.4664 38.9289 23.3653C38.9289 23.2642 38.95 23.1642 38.9908 23.0716C39.0315 22.9791 39.0912 22.8961 39.1658 22.8279C39.2404 22.7597 39.3285 22.7078 39.4243 22.6755C39.5201 22.6432 39.6216 22.6313 39.7223 22.6404C40.5507 22.6404 41.0182 23.4925 41.249 24.0902H39.7223ZM44.0776 24.0902H42.5508C42.7816 23.4984 43.2491 22.6404 44.0776 22.6404C44.1782 22.6313 44.2797 22.6432 44.3756 22.6755C44.4714 22.7078 44.5594 22.7597 44.6341 22.8279C44.7087 22.8961 44.7683 22.9791 44.8091 23.0716C44.8499 23.1642 44.871 23.2642 44.871 23.3653C44.871 23.4664 44.8499 23.5664 44.8091 23.6589C44.7683 23.7514 44.7087 23.8344 44.6341 23.9026C44.5594 23.9708 44.4714 24.0227 44.3756 24.055C44.2797 24.0873 44.1782 24.0993 44.0776 24.0902V24.0902Z" fill="#022013"/>
</svg>